<svg width="18" height="18" viewBox="0 0 18 18" fill="none" xmlns="http://www.w3.org/2000/svg">
<g id="Group 647">
<circle id="Ellipse 29" cx="9" cy="9" r="9" fill="#DB776D"/>
<g id="Group 646">
<path id="Union" fill-rule="evenodd" clip-rule="evenodd" d="M9.23455 3.13038C7.87153 3.12787 6.55235 3.61186 5.51436 4.49527C5.09187 4.85484 4.72725 5.27098 4.42887 5.72882L4.25103 4.70352C4.19778 4.39651 3.90573 4.1908 3.59872 4.24405C3.29171 4.2973 3.086 4.58935 3.13925 4.89636L3.65244 7.85507C3.67125 7.9635 3.71985 8.0593 3.78837 8.13551C3.96625 8.33461 4.26626 8.38475 4.50239 8.24081L6.93781 6.75625C7.20387 6.59407 7.28808 6.24691 7.1259 5.98085C6.96372 5.7148 6.61656 5.63059 6.3505 5.79277L5.55387 6.27837C5.77048 5.96971 6.02667 5.68745 6.31799 5.43952C7.13112 4.74748 8.16452 4.36834 9.23227 4.37031C10.3 4.37227 11.332 4.75521 12.1426 5.45024C12.7368 5.95975 13.1835 6.61245 13.4445 7.34021C13.4942 7.4787 13.5371 7.61991 13.5731 7.76337C13.5806 7.79334 13.5901 7.82249 13.6014 7.85066C13.7088 8.11876 13.9868 8.3077 14.2967 8.25925C14.6307 8.20705 14.8769 7.8879 14.7946 7.53915C14.7885 7.51331 14.7823 7.48751 14.7758 7.46177C14.7314 7.2846 14.6786 7.11011 14.6178 6.93886C14.2854 6.00291 13.713 5.1634 12.9497 4.50895C11.915 3.62173 10.5976 3.13289 9.23455 3.13038ZM9.13088 14.9742C10.4939 14.9768 11.8131 14.4928 12.8511 13.6094C13.2736 13.2498 13.6382 12.8336 13.9366 12.3758L14.1144 13.4011C14.1677 13.7081 14.4597 13.9138 14.7667 13.8606C15.0737 13.8073 15.2794 13.5153 15.2262 13.2083L14.713 10.2496C14.6941 10.1406 14.6451 10.0444 14.5761 9.96806C14.3981 9.76984 14.0988 9.72013 13.863 9.86382L11.4276 11.3484C11.1616 11.5106 11.0774 11.8577 11.2395 12.1238C11.4017 12.3898 11.7489 12.474 12.0149 12.3119L12.8116 11.8263C12.595 12.1349 12.3388 12.4172 12.0474 12.6651C11.2343 13.3571 10.2009 13.7363 9.13316 13.7343C8.06541 13.7324 7.03341 13.3494 6.22283 12.6544C5.62861 12.1449 5.18198 11.4922 4.92093 10.7644C4.87125 10.6259 4.8283 10.4847 4.79232 10.3413C4.78481 10.3113 4.77532 10.2821 4.76404 10.254C4.65667 9.98587 4.37864 9.79693 4.06869 9.84537C3.73471 9.89757 3.48849 10.2167 3.5708 10.5655L3.76122 10.5205L3.5708 10.5655C3.5769 10.5913 3.58318 10.6171 3.58963 10.6429C3.63406 10.82 3.68683 10.9945 3.74764 11.1658C4.07999 12.1017 4.65248 12.9412 5.41573 13.5957C6.45047 14.4829 7.76785 14.9717 9.13088 14.9742Z" fill="white"/>
</g>
</g>
</svg>
